<?xml version="1.0" encoding="UTF-8"?>
<svg xmlns="http://www.w3.org/2000/svg" xmlns:xlink="http://www.w3.org/1999/xlink" width="7pt" height="8pt" viewBox="0 0 7 8" version="1.1">
<g id="surface1">
<path style=" stroke:none;fill-rule:nonzero;fill:rgb(0%,0%,0%);fill-opacity:1;" d="M 0 7.25 C 0 7.664062 0.335938 8 0.75 8 L 6.25 8 C 6.664062 8 7 7.664062 7 7.25 L 7 3 L 0 3 Z M 5 4.1875 C 5 4.085938 5.085938 4 5.1875 4 L 5.8125 4 C 5.914062 4 6 4.085938 6 4.1875 L 6 4.8125 C 6 4.914062 5.914062 5 5.8125 5 L 5.1875 5 C 5.085938 5 5 4.914062 5 4.8125 Z M 5 6.1875 C 5 6.085938 5.085938 6 5.1875 6 L 5.8125 6 C 5.914062 6 6 6.085938 6 6.1875 L 6 6.8125 C 6 6.914062 5.914062 7 5.8125 7 L 5.1875 7 C 5.085938 7 5 6.914062 5 6.8125 Z M 3 4.1875 C 3 4.085938 3.085938 4 3.1875 4 L 3.8125 4 C 3.914062 4 4 4.085938 4 4.1875 L 4 4.8125 C 4 4.914062 3.914062 5 3.8125 5 L 3.1875 5 C 3.085938 5 3 4.914062 3 4.8125 Z M 3 6.1875 C 3 6.085938 3.085938 6 3.1875 6 L 3.8125 6 C 3.914062 6 4 6.085938 4 6.1875 L 4 6.8125 C 4 6.914062 3.914062 7 3.8125 7 L 3.1875 7 C 3.085938 7 3 6.914062 3 6.8125 Z M 1 4.1875 C 1 4.085938 1.085938 4 1.1875 4 L 1.8125 4 C 1.914062 4 2 4.085938 2 4.1875 L 2 4.8125 C 2 4.914062 1.914062 5 1.8125 5 L 1.1875 5 C 1.085938 5 1 4.914062 1 4.8125 Z M 1 6.1875 C 1 6.085938 1.085938 6 1.1875 6 L 1.8125 6 C 1.914062 6 2 6.085938 2 6.1875 L 2 6.8125 C 2 6.914062 1.914062 7 1.8125 7 L 1.1875 7 C 1.085938 7 1 6.914062 1 6.8125 Z M 6.25 1 L 5.5 1 L 5.5 0.25 C 5.5 0.113281 5.386719 0 5.25 0 L 4.75 0 C 4.613281 0 4.5 0.113281 4.5 0.25 L 4.5 1 L 2.5 1 L 2.5 0.25 C 2.5 0.113281 2.386719 0 2.25 0 L 1.75 0 C 1.613281 0 1.5 0.113281 1.5 0.25 L 1.5 1 L 0.75 1 C 0.335938 1 0 1.335938 0 1.75 L 0 2.5 L 7 2.5 L 7 1.75 C 7 1.335938 6.664062 1 6.25 1 Z M 6.25 1 "/>
</g>
</svg>
