<?xml version="1.0" encoding="UTF-8"?>
<svg xmlns="http://www.w3.org/2000/svg" xmlns:xlink="http://www.w3.org/1999/xlink" width="15pt" height="15pt" viewBox="0 0 15 15" version="1.1">
<g id="surface1">
<path style=" stroke:none;fill-rule:nonzero;fill:rgb(0%,0%,0%);fill-opacity:1;" d="M 2.34375 10.78125 L 0.46875 10.78125 C 0.210938 10.78125 0 10.992188 0 11.25 L 0 13.125 C 0 13.382812 0.210938 13.59375 0.46875 13.59375 L 2.34375 13.59375 C 2.601562 13.59375 2.8125 13.382812 2.8125 13.125 L 2.8125 11.25 C 2.8125 10.992188 2.601562 10.78125 2.34375 10.78125 Z M 2.34375 1.40625 L 0.46875 1.40625 C 0.210938 1.40625 0 1.617188 0 1.875 L 0 3.75 C 0 4.007812 0.210938 4.21875 0.46875 4.21875 L 2.34375 4.21875 C 2.601562 4.21875 2.8125 4.007812 2.8125 3.75 L 2.8125 1.875 C 2.8125 1.617188 2.601562 1.40625 2.34375 1.40625 Z M 2.34375 6.09375 L 0.46875 6.09375 C 0.210938 6.09375 0 6.304688 0 6.5625 L 0 8.4375 C 0 8.695312 0.210938 8.90625 0.46875 8.90625 L 2.34375 8.90625 C 2.601562 8.90625 2.8125 8.695312 2.8125 8.4375 L 2.8125 6.5625 C 2.8125 6.304688 2.601562 6.09375 2.34375 6.09375 Z M 14.53125 11.25 L 5.15625 11.25 C 4.898438 11.25 4.6875 11.460938 4.6875 11.71875 L 4.6875 12.65625 C 4.6875 12.914062 4.898438 13.125 5.15625 13.125 L 14.53125 13.125 C 14.789062 13.125 15 12.914062 15 12.65625 L 15 11.71875 C 15 11.460938 14.789062 11.25 14.53125 11.25 Z M 14.53125 1.875 L 5.15625 1.875 C 4.898438 1.875 4.6875 2.085938 4.6875 2.34375 L 4.6875 3.28125 C 4.6875 3.539062 4.898438 3.75 5.15625 3.75 L 14.53125 3.75 C 14.789062 3.75 15 3.539062 15 3.28125 L 15 2.34375 C 15 2.085938 14.789062 1.875 14.53125 1.875 Z M 14.53125 6.5625 L 5.15625 6.5625 C 4.898438 6.5625 4.6875 6.773438 4.6875 7.03125 L 4.6875 7.96875 C 4.6875 8.226562 4.898438 8.4375 5.15625 8.4375 L 14.53125 8.4375 C 14.789062 8.4375 15 8.226562 15 7.96875 L 15 7.03125 C 15 6.773438 14.789062 6.5625 14.53125 6.5625 Z M 14.53125 6.5625 "/>
</g>
</svg>
