<?xml version="1.0" encoding="UTF-8"?>
<svg xmlns="http://www.w3.org/2000/svg" xmlns:xlink="http://www.w3.org/1999/xlink" width="15pt" height="15pt" viewBox="0 0 15 15" version="1.1">
<g id="surface1">
<path style=" stroke:none;fill-rule:nonzero;fill:rgb(0%,0%,0%);fill-opacity:1;" d="M 4.375 1.640625 L 4.375 3.984375 C 4.375 4.371094 4.058594 4.6875 3.671875 4.6875 L 0.703125 4.6875 C 0.316406 4.6875 0 4.371094 0 3.984375 L 0 1.640625 C 0 1.253906 0.316406 0.9375 0.703125 0.9375 L 3.671875 0.9375 C 4.058594 0.9375 4.375 1.253906 4.375 1.640625 Z M 9.6875 8.671875 L 9.6875 6.328125 C 9.6875 5.941406 9.371094 5.625 8.984375 5.625 L 6.015625 5.625 C 5.628906 5.625 5.3125 5.941406 5.3125 6.328125 L 5.3125 8.671875 C 5.3125 9.058594 5.628906 9.375 6.015625 9.375 L 8.984375 9.375 C 9.371094 9.375 9.6875 9.058594 9.6875 8.671875 Z M 10.625 1.640625 L 10.625 3.984375 C 10.625 4.371094 10.941406 4.6875 11.328125 4.6875 L 14.296875 4.6875 C 14.683594 4.6875 15 4.371094 15 3.984375 L 15 1.640625 C 15 1.253906 14.683594 0.9375 14.296875 0.9375 L 11.328125 0.9375 C 10.941406 0.9375 10.625 1.253906 10.625 1.640625 Z M 9.6875 3.984375 L 9.6875 1.640625 C 9.6875 1.253906 9.371094 0.9375 8.984375 0.9375 L 6.015625 0.9375 C 5.628906 0.9375 5.3125 1.253906 5.3125 1.640625 L 5.3125 3.984375 C 5.3125 4.371094 5.628906 4.6875 6.015625 4.6875 L 8.984375 4.6875 C 9.371094 4.6875 9.6875 4.371094 9.6875 3.984375 Z M 3.671875 5.625 L 0.703125 5.625 C 0.316406 5.625 0 5.941406 0 6.328125 L 0 8.671875 C 0 9.058594 0.316406 9.375 0.703125 9.375 L 3.671875 9.375 C 4.058594 9.375 4.375 9.058594 4.375 8.671875 L 4.375 6.328125 C 4.375 5.941406 4.058594 5.625 3.671875 5.625 Z M 0 11.015625 L 0 13.359375 C 0 13.746094 0.316406 14.0625 0.703125 14.0625 L 3.671875 14.0625 C 4.058594 14.0625 4.375 13.746094 4.375 13.359375 L 4.375 11.015625 C 4.375 10.628906 4.058594 10.3125 3.671875 10.3125 L 0.703125 10.3125 C 0.316406 10.3125 0 10.628906 0 11.015625 Z M 11.328125 9.375 L 14.296875 9.375 C 14.683594 9.375 15 9.058594 15 8.671875 L 15 6.328125 C 15 5.941406 14.683594 5.625 14.296875 5.625 L 11.328125 5.625 C 10.941406 5.625 10.625 5.941406 10.625 6.328125 L 10.625 8.671875 C 10.625 9.058594 10.941406 9.375 11.328125 9.375 Z M 11.328125 14.0625 L 14.296875 14.0625 C 14.683594 14.0625 15 13.746094 15 13.359375 L 15 11.015625 C 15 10.628906 14.683594 10.3125 14.296875 10.3125 L 11.328125 10.3125 C 10.941406 10.3125 10.625 10.628906 10.625 11.015625 L 10.625 13.359375 C 10.625 13.746094 10.941406 14.0625 11.328125 14.0625 Z M 5.3125 11.015625 L 5.3125 13.359375 C 5.3125 13.746094 5.628906 14.0625 6.015625 14.0625 L 8.984375 14.0625 C 9.371094 14.0625 9.6875 13.746094 9.6875 13.359375 L 9.6875 11.015625 C 9.6875 10.628906 9.371094 10.3125 8.984375 10.3125 L 6.015625 10.3125 C 5.628906 10.3125 5.3125 10.628906 5.3125 11.015625 Z M 5.3125 11.015625 "/>
</g>
</svg>
