<?xml version="1.0" encoding="UTF-8"?>
<svg xmlns="http://www.w3.org/2000/svg" xmlns:xlink="http://www.w3.org/1999/xlink" width="7pt" height="8pt" viewBox="0 0 7 8" version="1.1">
<g id="surface1">
<path style=" stroke:none;fill-rule:nonzero;fill:rgb(0%,0%,0%);fill-opacity:1;" d="M 4.898438 4.75 C 4.453125 4.75 4.234375 5 3.5 5 C 2.765625 5 2.550781 4.75 2.101562 4.75 C 0.941406 4.75 0 5.691406 0 6.851562 L 0 7.25 C 0 7.664062 0.335938 8 0.75 8 L 6.25 8 C 6.664062 8 7 7.664062 7 7.25 L 7 6.851562 C 7 5.691406 6.058594 4.75 4.898438 4.75 Z M 6.25 7.25 L 0.75 7.25 L 0.75 6.851562 C 0.75 6.105469 1.355469 5.5 2.101562 5.5 C 2.328125 5.5 2.699219 5.75 3.5 5.75 C 4.308594 5.75 4.671875 5.5 4.898438 5.5 C 5.644531 5.5 6.25 6.105469 6.25 6.851562 Z M 3.5 4.5 C 4.742188 4.5 5.75 3.492188 5.75 2.25 C 5.75 1.007812 4.742188 0 3.5 0 C 2.257812 0 1.25 1.007812 1.25 2.25 C 1.25 3.492188 2.257812 4.5 3.5 4.5 Z M 3.5 0.75 C 4.328125 0.75 5 1.421875 5 2.25 C 5 3.078125 4.328125 3.75 3.5 3.75 C 2.671875 3.75 2 3.078125 2 2.25 C 2 1.421875 2.671875 0.75 3.5 0.75 Z M 3.5 0.75 "/>
</g>
</svg>
