<?xml version="1.0" encoding="utf-8"?><svg viewBox="0 0 127 127" xmlns="http://www.w3.org/2000/svg" xmlns:xlink="http://www.w3.org/1999/xlink"><style>:root>svg{display:none}:root>svg:target{display:block}</style><svg viewBox="0 0 31 44" id="address" xmlns="http://www.w3.org/2000/svg"><defs><style>.acls-1{fill:#a3bbc8;fill-rule:evenodd}</style></defs><path id="aicon" class="acls-1" d="M558.6 655.809l-6.584-2.917-5.674 2.51a1.651 1.651 0 01-1.864-.355 1.634 1.634 0 01-.313-1.862l4.994-10.516a1.1 1.1 0 111.972.987l-4.343 9.144 4.32-1.914a2.227 2.227 0 011.806 0l6.583 2.916h.011l6.585-2.917a2.223 2.223 0 011.8 0l4.32 1.914-4.342-9.145a1.093 1.093 0 01.174-1.275 1.107 1.107 0 011.8.288l4.994 10.518a1.656 1.656 0 01-2.176 2.216L567 652.892l-6.594 2.917a2.23 2.23 0 01-1.806 0zm-1.947-7.6l-9.553-15.926c-.011-.02-.023-.041-.033-.062a13.944 13.944 0 1126.39-6.327 13.691 13.691 0 01-1.528 6.327l-.034.062-9.548 15.927a3.326 3.326 0 01-5.697 0zm2.683-34.012a11.783 11.783 0 00-11.586 11.625 11.521 11.521 0 001.269 5.366l9.529 15.9a1.114 1.114 0 001.91 0l9.528-15.9a11.665 11.665 0 00-2.231-13.625 11.7 11.7 0 00-8.247-3.368zm-4.884 11.7a5.051 5.051 0 115.051 5.027 5.044 5.044 0 01-5.054-5.03zm2.206 0a2.845 2.845 0 102.845-2.83 2.842 2.842 0 00-2.848 2.827z" transform="translate(-544 -612)"/></svg><svg viewBox="0 0 5.188 9.531" id="arrow__right" xmlns="http://www.w3.org/2000/svg"><defs><style>.bcls-1{fill:#243f4d;fill-rule:evenodd}</style></defs><path class="bcls-1" d="M.472 9.538a.463.463 0 00.331-.14l4.221-4.265.013-.013a.522.522 0 00.095-.144.541.541 0 00.045-.217.528.528 0 00-.044-.211.525.525 0 00-.1-.147.043.043 0 00-.011-.012L.801.124a.461.461 0 00-.68.019.539.539 0 00.018.724l3.857 3.9-3.857 3.9a.539.539 0 00-.018.724.467.467 0 00.351.147z"/></svg><svg viewBox="0 0 22 9" id="arrow_btn" xmlns="http://www.w3.org/2000/svg"><path class="ccls-1" d="M.3 5.472h16.948l-.1 2.857a.292.292 0 000 .41l.172.172a.28.28 0 00.2.086.285.285 0 00.2-.084l4.193-4.211A.292.292 0 0022 4.5a.283.283 0 00-.084-.2L17.723.087a.289.289 0 00-.407 0l-.172.173a.287.287 0 00-.084.2.278.278 0 00.084.2l.113 2.865H.292A.3.3 0 000 3.82v1.37a.292.292 0 00.3.282z"/></svg><svg viewBox="0 0 9 10" id="calendar" xmlns="http://www.w3.org/2000/svg"><path d="M0 9.063c0 .515.434.937.965.937h7.07C8.566 10 9 9.578 9 9.062V3.75H0zm6.43-3.829c0-.129.105-.234.238-.234h.805a.24.24 0 01.242.234v.782a.24.24 0 01-.242.234h-.805a.236.236 0 01-.238-.234zm0 2.5c0-.129.105-.234.238-.234h.805a.24.24 0 01.242.234v.782a.24.24 0 01-.242.234h-.805a.236.236 0 01-.238-.234zm-2.575-2.5A.24.24 0 014.098 5h.804a.24.24 0 01.243.234v.782a.24.24 0 01-.243.234h-.804a.24.24 0 01-.243-.234zm0 2.5a.24.24 0 01.243-.234h.804a.24.24 0 01.243.234v.782a.24.24 0 01-.243.234h-.804a.24.24 0 01-.243-.234zm-2.57-2.5A.24.24 0 011.527 5h.805c.133 0 .238.105.238.234v.782a.236.236 0 01-.238.234h-.805a.24.24 0 01-.242-.234zm0 2.5a.24.24 0 01.242-.234h.805c.133 0 .238.105.238.234v.782a.236.236 0 01-.238.234h-.805a.24.24 0 01-.242-.234zm6.75-6.484H7.07V.312A.318.318 0 006.75 0h-.645c-.175 0-.32.14-.32.313v.937h-2.57V.312A.318.318 0 002.895 0H2.25c-.176 0-.32.14-.32.313v.937H.965c-.531 0-.965.422-.965.938v.937h9v-.938c0-.515-.434-.937-.965-.937zm0 0"/></svg><svg viewBox="0 0 18.94 16.969" id="cart" xmlns="http://www.w3.org/2000/svg"><path class="ecls-1" d="M5.53 16.978a2.074 2.074 0 110-4.147 2.056 2.056 0 011.46.6 2.03 2.03 0 01.61 1.466 2.071 2.071 0 01-2.07 2.081zm0-2.963a.889.889 0 10.34 1.71.9.9 0 00.55-.824.92.92 0 00-.26-.629.9.9 0 00-.63-.257zm8.39 2.963a2.045 2.045 0 01-1.46-.607 2.068 2.068 0 011.46-3.54 1.953 1.953 0 011.47.6 2.085 2.085 0 01-.67 3.383 2.093 2.093 0 01-.8.164zm0-2.963a.978.978 0 00-.82.548.887.887 0 001.16 1.161.891.891 0 00.29-1.452.9.9 0 00-.63-.257zm-11.27.164a.562.562 0 01-.25-.056.59.59 0 01-.29-.787 3.686 3.686 0 013.05-2.151L4.11 5.794a.591.591 0 111.16-.228l1.09 5.578h9.43l1.8-6.771H4.29A4.346 4.346 0 01.01.68.587.587 0 01.5.007a.6.6 0 01.68.5 3.159 3.159 0 003.11 2.682h14.07a.582.582 0 01.47.232.594.594 0 01.11.513l-2.13 7.956a.59.59 0 01-.57.44H5.88a.03.03 0 00-.02 0 2.66 2.66 0 00-2.68 1.51.586.586 0 01-.53.338z"/></svg><svg data-name="Группа 1" viewBox="0 0 53.75 36.44" id="delivery" xmlns="http://www.w3.org/2000/svg"><path class="fcls-1" d="M9.004 4.77H2.878a.79.79 0 000 1.58h6.126a.79.79 0 000-1.58zm.524 11.01h-5.6a.785.785 0 100 1.57h5.6a.785.785 0 100-1.57zm-2.094-4.72H.788a.79.79 0 000 1.58h6.65a.79.79 0 00-.004-1.58zm0 11.01h-.646a.785.785 0 100 1.57h.644a.785.785 0 10.002-1.57zm-3.263 0H.788a.785.785 0 100 1.57h3.387a.785.785 0 10-.004-1.57zm36.86-19.86h-6.657V.79a.784.784 0 00-.786-.78H21.413a.785.785 0 100 1.57h11.39V18.8a.786.786 0 101.571 0V3.78h6.657a6.519 6.519 0 016.509 6.52v13.29h-2a4.974 4.974 0 00-9.824 0h-1.345v-1.12a.786.786 0 10-1.571 0v1.12h-8.336a4.974 4.974 0 00-9.823 0h-1.634V1.58h5.261a.785.785 0 100-1.57h-6.046a.783.783 0 00-.785.78v23.59a.791.791 0 00.785.79h2.419a4.974 4.974 0 009.823 0h11.252a4.974 4.974 0 009.824 0h2.782a.791.791 0 00.785-.79V10.3a8.094 8.094 0 00-8.076-8.09zM19.556 27.79a3.41 3.41 0 113.4-3.41 3.411 3.411 0 01-3.4 3.41zm21.075 0a3.411 3.411 0 01-3.4-3.41 3.4 3.4 0 113.4 3.41zm.4-22.44h-4.3a.791.791 0 00-.785.79v7.39a.791.791 0 00.785.79h8.457a.792.792 0 00.786-.79V10.3a4.949 4.949 0 00-4.943-4.95zm3.367 7.39h-6.882V6.93h3.515a3.371 3.371 0 013.367 3.37v2.44zm-24.842 9.61a2.03 2.03 0 102.024 2.03 2.029 2.029 0 00-2.024-2.03zm0 2.49a.46.46 0 01-.455-.46.455.455 0 01.909 0 .46.46 0 01-.454.46zm21.075-2.49a2.03 2.03 0 102.025 2.03 2.03 2.03 0 00-2.025-2.03zm0 2.49a.46.46 0 01-.454-.46.454.454 0 01.908 0 .46.46 0 01-.454.46zm4.552-8.37a.783.783 0 00-.785.78v1.99a.786.786 0 101.571 0v-1.99a.784.784 0 00-.781-.78z"/><circle class="fcls-2" cx="43.938" cy="26.645" r="9.812"/></svg><svg viewBox="0 0 8.13 15.44" id="facebook" xmlns="http://www.w3.org/2000/svg"><defs><style>.gcls-1{fill:#a1a1a1;fill-rule:evenodd}</style></defs><path id="gPath_1" data-name="Path 1" class="gcls-1" d="M1069.19 1899.12c.41 0 .83.03 1.24.05.27.01.54.04.79.07l-.02 2.49h-.2c-.27 0-.54-.01-.82-.01-.2 0-.4.01-.61.01a1.041 1.041 0 00-1.18 1.09c-.02.6-.03 1.9-.03 1.97.03 0 .68.01 1.34.01.32 0 .64 0 .87-.01h.53c-.13.96-.26 1.87-.39 2.8h-2.35l-.06 6.97h-2.89l.06-6.99h-2.37l.02-2.77h2.38v-.21c.01-.56 0-1.12.02-1.68a7.581 7.581 0 01.09-1.06 3.145 3.145 0 011.27-2.08 3.6 3.6 0 012.08-.64c.08 0 .15-.01.23-.01z" transform="translate(-1063.09 -1899.12)"/></svg><svg viewBox="0 0 22.66 14.38" id="google" xmlns="http://www.w3.org/2000/svg"><defs><style>.hcls-1{fill:#888;fill-rule:evenodd}</style></defs><path id="hUnion_6" data-name="Union 6" class="hcls-1" d="M1052.75 1960.35a7.121 7.121 0 01-6.59-5.65 6.6 6.6 0 01-.14-1.93 7.277 7.277 0 015.49-6.56 5.282 5.282 0 011.18-.19c.23-.01.46-.02.69-.02a6.786 6.786 0 013.4.93 9.386 9.386 0 011.27.93c-.72.71-1.41 1.4-2.11 2.09a3.914 3.914 0 00-2.1-1.02 4.259 4.259 0 00-.61-.04 4.307 4.307 0 00-4.14 3.35 3.817 3.817 0 00-.1 1.3 4.3 4.3 0 002.94 3.74 4.35 4.35 0 001.25.19c.1 0 .2-.01.3-.01a4.2 4.2 0 002.09-.67 3.314 3.314 0 001.43-2.17h-3.85c0-.09.02-1.89.02-2.76l.01-.12h6.76a7.773 7.773 0 01-1.28 6.05 6.273 6.273 0 01-3.55 2.32 7.539 7.539 0 01-1.94.25c-.14 0-.28 0-.42-.01zm13.33-4.05h-1.89v-.07l.02-2.43h-2.51v-.08l.02-1.82v-.07h2.5l.02-2.43v-.07h1.96v.07l-.02 2.43h2.51v.07l-.01 1.82v.08h-2.51l-.02 2.43v.07h-.07z" transform="translate(-1046.03 -1946)"/></svg><svg viewBox="0 0 15 15" id="grid" xmlns="http://www.w3.org/2000/svg"><path d="M4.375 1.64v2.344a.705.705 0 01-.703.704H.703A.705.705 0 010 3.984V1.641C0 1.254.316.937.703.937h2.969c.387 0 .703.317.703.704zm5.313 7.032V6.328a.705.705 0 00-.704-.703H6.016a.705.705 0 00-.704.703v2.344c0 .387.317.703.704.703h2.968a.705.705 0 00.704-.703zm.937-7.031v2.343c0 .387.316.704.703.704h2.969A.705.705 0 0015 3.984V1.641a.705.705 0 00-.703-.704h-2.969a.705.705 0 00-.703.704zm-.938 2.343V1.641a.705.705 0 00-.703-.704H6.016a.705.705 0 00-.704.704v2.343c0 .387.317.704.704.704h2.968a.705.705 0 00.704-.704zM3.673 5.625H.703A.705.705 0 000 6.328v2.344c0 .387.316.703.703.703h2.969a.705.705 0 00.703-.703V6.328a.705.705 0 00-.703-.703zM0 11.015v2.344c0 .387.316.704.703.704h2.969a.705.705 0 00.703-.704v-2.343a.705.705 0 00-.703-.704H.703a.705.705 0 00-.703.704zm11.328-1.64h2.969A.705.705 0 0015 8.672V6.328a.705.705 0 00-.703-.703h-2.969a.705.705 0 00-.703.703v2.344c0 .387.316.703.703.703zm0 4.688h2.969a.705.705 0 00.703-.704v-2.343a.705.705 0 00-.703-.704h-2.969a.705.705 0 00-.703.704v2.343c0 .387.316.704.703.704zm-6.015-3.047v2.343c0 .387.316.704.703.704h2.968a.705.705 0 00.704-.704v-2.343a.705.705 0 00-.704-.704H6.016a.705.705 0 00-.704.704zm0 0"/></svg><svg viewBox="0 0 22 18" id="heart" xmlns="http://www.w3.org/2000/svg"><path data-name="Forma 1" class="jcls-1" d="M21.99 5.82a6.208 6.208 0 00-1.849-4.1A5.871 5.871 0 0016 0c-2.311 0-3.948 1.78-4.827 2.74a2.156 2.156 0 01-.156.17l-.083-.09C10.134 1.9 8.458 0 5.996 0a5.873 5.873 0 00-4.139 1.72 6.208 6.208 0 00-1.849 4.1 6.845 6.845 0 001.271 4.34 29.307 29.307 0 004.763 4.75C7.747 16.32 9.992 18 11.007 18c1.032 0 3.269-1.68 4.965-3.09a29.234 29.234 0 004.746-4.75 6.935 6.935 0 001.272-4.34zm-2.376 3.61a27 27 0 01-4.431 4.42c-2.406 2-3.831 2.79-4.172 2.82-.342-.03-1.77-.83-4.188-2.84a26.78 26.78 0 01-4.437-4.4 5.6 5.6 0 01-1.054-3.54 4.807 4.807 0 014.666-4.57c1.863 0 3.216 1.54 3.943 2.37A1.52 1.52 0 0011 4.45a1.731 1.731 0 001.151-.81c.794-.87 2.122-2.32 3.851-2.32a4.807 4.807 0 014.666 4.57 5.528 5.528 0 01-1.054 3.54z"/></svg><svg viewBox="0 0 17.19 17.19" id="instagram" xmlns="http://www.w3.org/2000/svg"><defs><style>.kcls-1{fill:#888;fill-rule:evenodd}</style></defs><path id="kUnion_5" data-name="Union 5" class="kcls-1" d="M1004.59 1961.94a4.322 4.322 0 01-3.43-3.75c-.23-1.45-.25-8.19.17-9.65a4.387 4.387 0 013.75-3.35 34.173 34.173 0 014.31-.19c1.6 0 3.22.04 4.19.1a4.724 4.724 0 013.14 1.28 4.517 4.517 0 011.38 2.94c.12 1.35.21 7.74-.19 9.24a4.411 4.411 0 01-3.8 3.44 42.333 42.333 0 01-4.74.19 29.143 29.143 0 01-4.78-.25zm.92-15.26a2.958 2.958 0 00-2.75 2.59 57.587 57.587 0 00-.06 8.69 2.8 2.8 0 002.12 2.43 27.569 27.569 0 004.63.25c1.8 0 3.57-.06 4.24-.13a2.941 2.941 0 002.75-2.6 61.315 61.315 0 00.11-8.45 2.9 2.9 0 00-2.58-2.74 40.212 40.212 0 00-4.3-.16c-1.71 0-3.41.04-4.16.12zm-.32 6.92a4.445 4.445 0 014.45-4.41 4.37 4.37 0 014.37 4.41 4.458 4.458 0 01-4.45 4.41 4.37 4.37 0 01-4.37-4.41zm1.55-.03a2.834 2.834 0 002.81 2.88h.02a2.882 2.882 0 002.88-2.82 2.82 2.82 0 00-2.8-2.88h-.03a2.881 2.881 0 00-2.88 2.82zm6.45-4.55a1.029 1.029 0 011.03-1.03h.01a1.016 1.016 0 011.02 1.04 1.035 1.035 0 01-1.04 1.02 1.014 1.014 0 01-1.02-1.03z" transform="translate(-1001 -1945)"/></svg><svg viewBox="0 0 15 15" id="list" xmlns="http://www.w3.org/2000/svg"><path d="M2.344 10.781H.469A.47.47 0 000 11.25v1.875c0 .258.21.469.469.469h1.875a.47.47 0 00.469-.469V11.25a.47.47 0 00-.47-.469zm0-9.375H.469A.47.47 0 000 1.875V3.75c0 .258.21.469.469.469h1.875a.47.47 0 00.469-.469V1.875a.47.47 0 00-.47-.469zm0 4.688H.469A.47.47 0 000 6.562v1.875c0 .258.21.47.469.47h1.875a.47.47 0 00.469-.47V6.563a.47.47 0 00-.47-.47zM14.53 11.25H5.156a.47.47 0 00-.468.469v.937c0 .258.21.469.468.469h9.375a.47.47 0 00.469-.469v-.937a.47.47 0 00-.469-.469zm0-9.375H5.156a.47.47 0 00-.468.469v.937c0 .258.21.469.468.469h9.375A.47.47 0 0015 3.281v-.937a.47.47 0 00-.469-.469zm0 4.688H5.156a.47.47 0 00-.468.468v.938c0 .258.21.468.468.468h9.375A.47.47 0 0015 7.97V7.03a.47.47 0 00-.469-.468zm0 0"/></svg><svg viewBox="0 0 37 33.968" id="mailto" xmlns="http://www.w3.org/2000/svg"><defs><style>.mcls-1{fill:#fff;fill-rule:evenodd}</style></defs><path id="micon" class="mcls-1" d="M942.975 650.918a.957.957 0 01-.669-.272.922.922 0 01-.278-.659L942 629.786v-.017a.927.927 0 01.408-.754l5.322-3.616v-3.838a.94.94 0 01.948-.932h6.067l5.217-3.546a.961.961 0 011.079 0l5.185 3.545h6.093a.94.94 0 01.947.932v3.882l5.3 3.621a.933.933 0 01.373.519.528.528 0 01.034.184l.027 20.171a.941.941 0 01-.946.933l-35.077.048zm2.773-1.867l29.478-.041-14.712-11.224zm-1.828-.965l11.443-8.73-11.463-7.793zm21.72-8.748l11.461 8.744-.023-16.565zm-16.014-6.148l7.308 4.968 3-2.288a.959.959 0 011.148-.008l.013.008 2.977 2.272 7.3-4.993v-10.656h-21.746v10.7zm-5.013-3.408l3.118 2.121v-4.241zm28.654 2.072l3.028-2.071-3.028-2.07v4.141zm-15.188-11.225h4.828l-2.407-1.645zm-3.994 12.3a.933.933 0 110-1.865h12.83a.933.933 0 110 1.865h-12.83zm0-4.847a.932.932 0 110-1.864h12.83a.932.932 0 110 1.864h-12.83z" transform="translate(-942 -616.938)"/></svg><svg fill="none" viewBox="0 0 30 18" id="menu-btn" xmlns="http://www.w3.org/2000/svg"><path d="M0 0h30v2H0V0zM0 8h30v2H0V8zM0 16h30v2H0z" fill="#000"/></svg><svg id="payment" data-name="Группа 1" viewBox="0 0 53.56 52.25" xmlns="http://www.w3.org/2000/svg"><defs><style>.ocls-1,.ocls-2{fill:#a3bbc8}.ocls-1{fill-rule:evenodd}.ocls-2{opacity:.34}</style></defs><path id="ocredit-card" class="ocls-1" d="M1444.43 1042.32a.83.83 0 00-.84.83v8.27a2.164 2.164 0 01-2.16 2.16h-39.34a2.164 2.164 0 01-2.16-2.16v-11.92h27.29a.84.84 0 100-1.68h-27.29v-5.47h9.87a.828.828 0 00.83-.83.837.837 0 00-.83-.84h-9.87v-2.88a2.166 2.166 0 012.16-2.17h25.13a.835.835 0 100-1.67h-25.13a3.839 3.839 0 00-3.83 3.84v23.62a3.837 3.837 0 003.83 3.83h39.34a3.837 3.837 0 003.83-3.83v-8.27a.828.828 0 00-.83-.83zm-17.21-11.64H1413a.837.837 0 00-.83.84.828.828 0 00.83.83h14.22a.837.837 0 00.84-.83.845.845 0 00-.84-.84zm-9.24 11.56h-14.27a.835.835 0 000 1.67h14.27a.835.835 0 100-1.67zm-6.08 3.99h-8.19a.835.835 0 000 1.67h8.19a.835.835 0 000-1.67zm34.63-13.61a.832.832 0 00.84-.84v-4.77a3.038 3.038 0 00-2.39-2.97v-6.02a6.6 6.6 0 10-13.19 0v6.02a3.053 3.053 0 00-2.4 2.97v10.75a3.045 3.045 0 003.04 3.04h11.9a3.039 3.039 0 003.04-3.04v-3.19a.835.835 0 00-1.67 0v3.19a1.379 1.379 0 01-1.37 1.37h-11.9a1.379 1.379 0 01-1.37-1.37v-10.75a1.379 1.379 0 011.37-1.37h11.9a1.379 1.379 0 011.37 1.37v4.77a.83.83 0 00.83.84zm-3.23-8.65h-9.84v-5.95a4.92 4.92 0 119.84 0v5.95zm-4.92 4.32a3.092 3.092 0 00-.83 6.07v2.04a.83.83 0 00.83.84.839.839 0 00.84-.84v-2.04a3.094 3.094 0 00-.84-6.07zm0 4.52a1.425 1.425 0 111.42-1.43 1.428 1.428 0 01-1.42 1.43z" transform="translate(-1398.25 -1011.41)"/><circle class="ocls-2" cx="43.75" cy="42.45" r="9.81"/></svg><svg viewBox="0 0 37 44" id="phone" xmlns="http://www.w3.org/2000/svg"><defs><style>.pcls-1{fill:#a3bbc8;fill-rule:evenodd}</style></defs><path id="picon" class="pcls-1" d="M1355.44 650.922a5.06 5.06 0 115.06 5 5.034 5.034 0 01-5.06-5zm1.97 0a3.085 3.085 0 103.09-3.045 3.074 3.074 0 00-3.09 3.045zm11.47-11.336a5.06 5.06 0 115.06 5 5.033 5.033 0 01-5.06-5zm1.98 0a3.085 3.085 0 103.08-3.046 3.066 3.066 0 00-3.08 3.046zm-15.42 0a5.06 5.06 0 115.06 5 5.033 5.033 0 01-5.06-5zm1.97 0a3.085 3.085 0 103.09-3.046 3.075 3.075 0 00-3.09 3.046zm-15.41 0a5.06 5.06 0 115.06 5 5.033 5.033 0 01-5.06-5zm1.97 0a3.085 3.085 0 103.09-3.046 3.075 3.075 0 00-3.09 3.046zm24.91-11.337a5.06 5.06 0 115.06 5 5.034 5.034 0 01-5.06-5zm1.98 0a3.085 3.085 0 103.08-3.045 3.064 3.064 0 00-3.08 3.045zm-15.42 0a5.06 5.06 0 115.06 5 5.034 5.034 0 01-5.06-5zm1.97 0a3.085 3.085 0 103.09-3.045 3.073 3.073 0 00-3.09 3.045zm-15.41 0a5.06 5.06 0 115.06 5 5.034 5.034 0 01-5.06-5zm1.97 0a3.085 3.085 0 103.09-3.045 3.073 3.073 0 00-3.09 3.045zm24.91-11.336a5.06 5.06 0 115.06 5 5.033 5.033 0 01-5.06-5zm1.98 0a3.085 3.085 0 103.08-3.046 3.066 3.066 0 00-3.08 3.046zm-15.42 0a5.06 5.06 0 115.06 5 5.033 5.033 0 01-5.06-5zm1.97 0a3.085 3.085 0 103.09-3.046 3.075 3.075 0 00-3.09 3.046zm-15.41 0a5.06 5.06 0 115.06 5 5.033 5.033 0 01-5.06-5zm1.97 0a3.085 3.085 0 103.09-3.046 3.075 3.075 0 00-3.09 3.046z" transform="translate(-1342 -611.906)"/></svg><svg data-name="Группа 1" viewBox="0 0 127 127" id="play" xmlns="http://www.w3.org/2000/svg"><circle class="qcls-1" cx="63.5" cy="63.5" r="63.5"/><circle class="qcls-2" cx="63" cy="63" r="49"/><path data-name="Form 24" class="qcls-3" d="M73.684 64.74l-16.044 9.8a3.228 3.228 0 01-3.062.14 2.685 2.685 0 01-1.579-2.39V52.7a2.685 2.685 0 011.579-2.39 3.258 3.258 0 013.062.15l16.044 9.79A2.666 2.666 0 0175 62.5a2.638 2.638 0 01-1.316 2.24z"/></svg><svg viewBox="0 0 15 11" id="right-arrow" xmlns="http://www.w3.org/2000/svg"><defs><style>.rcls-1{fill:#fff;fill-rule:evenodd}</style></defs><path class="rcls-1" d="M8.931 11.01a.673.673 0 00.425-.16l5.434-4.92c.007 0 .013-.01.019-.01l.031-.03v-.01a.567.567 0 00.138-.47.6.6 0 00-.155-.31l-.033-.03L9.355.16a.65.65 0 00-.874.02.578.578 0 00.024.84l4.311 3.89H.631a.608.608 0 00-.617.59.6.6 0 00.617.59h12.186l-4.311 3.9a.566.566 0 00-.024.83.608.608 0 00.449.19z"/></svg><svg viewBox="0 0 20 20" id="search" xmlns="http://www.w3.org/2000/svg"><path data-name="Forma 1" class="scls-1" d="M19.45 16.8l-4.588-4.59a8.827 8.827 0 01-2.651 2.65l4.588 4.59a1.874 1.874 0 002.651-2.65zM15 7.5A7.5 7.5 0 107.5 15 7.5 7.5 0 0015 7.5zm-7.5 5.62a5.625 5.625 0 115.625-5.62A5.628 5.628 0 017.5 13.12zM3.125 7.5h1.25A3.135 3.135 0 017.5 4.37V3.12A4.386 4.386 0 003.125 7.5z"/></svg><svg viewBox="0 0 17.03 17" id="search-form" xmlns="http://www.w3.org/2000/svg"><defs><style>.tcls-1{fill:#094074;fill-rule:evenodd}</style></defs><path class="tcls-1" d="M16.44 17.014a.6.6 0 01-.42-.174l-5.3-5.3a6.515 6.515 0 11.84-.839l5.3 5.3a.6.6 0 010 .839.6.6 0 01-.42.174zM6.54 1.181a5.344 5.344 0 105.35 5.344 5.351 5.351 0 00-5.35-5.344z"/></svg><svg data-name="Группа 1" viewBox="0 0 50.875 53.13" id="support" xmlns="http://www.w3.org/2000/svg"><path class="ucls-1" d="M41.078 33.5a9.815 9.815 0 11-9.8 9.82 9.811 9.811 0 019.8-9.82z"/><path class="ucls-2" d="M45.406 11.58a.937.937 0 00-1.592.99 22.684 22.684 0 01-32.86 30.14.938.938 0 00-1.125 1.5 24.559 24.559 0 0035.577-32.63zm-23.03 21.94h-7.55l4.743-4.75a12.68 12.68 0 003.744-9.03 5.844 5.844 0 10-11.688 0 .938.938 0 001.875 0 3.969 3.969 0 117.938 0 10.836 10.836 0 01-3.195 7.71l-6.344 6.34a.949.949 0 00-.2 1.03.93.93 0 00.866.57h9.813a.935.935 0 10-.002-1.87zm15.039-6.44h-2.6v-1.52a.938.938 0 00-1.875 0v1.52h-5.286l5.286-8.85v4.21a.938.938 0 101.875 0v-7.62a.957.957 0 00-.456-.8.94.94 0 00-1.286.33l-7.875 13.19a.933.933 0 00-.011.94.951.951 0 00.816.48h6.938v5.5a.938.938 0 001.875 0v-5.5h2.6a.94.94 0 00-.001-1.88zm5.33-22.63a.938.938 0 10-1.875.04l.042 1.75A24.556 24.556 0 007.363 42.09a.93.93 0 00.656.27.92.92 0 00.669-.28.942.942 0 00-.013-1.33A22.679 22.679 0 0124.557 1.88a22.745 22.745 0 0115.107 5.77l-1.843.04a.935.935 0 00.022 1.87h.023l4.06-.09a.934.934 0 00.915-.96z"/></svg><svg viewBox="0 0 14.31 11.62" id="twitter" xmlns="http://www.w3.org/2000/svg"><defs><style>.vcls-1{fill:#a1a1a1;fill-rule:evenodd}</style></defs><path id="vPath_2" data-name="Path 2" class="vcls-1" d="M1109.69 1902.28c-.11.16-.21.3-.33.45a5.7 5.7 0 01-1.07 1.01l-.05.09a8.22 8.22 0 01-.07 1.31 8.818 8.818 0 01-.77 2.61 8.712 8.712 0 01-1.6 2.3 7.864 7.864 0 01-4.05 2.25 8.967 8.967 0 01-1.64.2h-.26a8.172 8.172 0 01-4.42-1.27l-.07-.04a5.322 5.322 0 00.69.04 6.049 6.049 0 002.25-.44 5.834 5.834 0 001.4-.82 2.9 2.9 0 01-2.71-2.03 3.287 3.287 0 00.54.05 2.82 2.82 0 00.71-.09l.05-.02a2.9 2.9 0 01-2.32-2.9 2.914 2.914 0 001.31.35 2.914 2.914 0 01-1.2-1.78 2.877 2.877 0 01.34-2.12 8.311 8.311 0 006.02 3.07c-.02-.12-.03-.22-.05-.33a2.8 2.8 0 01.45-1.91 2.853 2.853 0 011.99-1.33 3.439 3.439 0 01.54-.04 2.833 2.833 0 012.03.86.139.139 0 00.1.05.09.09 0 00.05-.01 5.547 5.547 0 001.71-.65l.04-.02a2.919 2.919 0 01-1.25 1.6 5.859 5.859 0 001.64-.44z" transform="translate(-1095.38 -1900.88)"/></svg><svg viewBox="0 0 7 8" id="user" xmlns="http://www.w3.org/2000/svg"><path d="M4.898 4.75c-.445 0-.664.25-1.398.25-.734 0-.95-.25-1.398-.25C.942 4.75 0 5.691 0 6.852v.398c0 .414.336.75.75.75h5.5A.75.75 0 007 7.25v-.398c0-1.16-.941-2.102-2.102-2.102zm1.352 2.5H.75v-.398c0-.747.605-1.352 1.352-1.352.226 0 .597.25 1.398.25.809 0 1.172-.25 1.398-.25.747 0 1.352.605 1.352 1.352zM3.5 4.5a2.25 2.25 0 10-.001-4.501A2.25 2.25 0 003.5 4.5zm0-3.75a1.5 1.5 0 110 3 1.5 1.5 0 010-3zm0 0"/></svg><svg viewBox="0 0 13.687 13.16" id="user-icon" xmlns="http://www.w3.org/2000/svg"><defs><style>.xcls-1{fill:#436372;fill-rule:evenodd}</style></defs><path class="xcls-1" d="M13.257 13.17H.424a.426.426 0 01-.428-.42 6.85 6.85 0 0113.689 0 .426.426 0 01-.428.42zm-12.39-.83h11.947a6.011 6.011 0 00-11.947 0zM6.841 7a3.5 3.5 0 113.636-3.5A3.574 3.574 0 016.841 7zm0-6.17a2.672 2.672 0 102.78 2.67A2.732 2.732 0 006.841.83z"/></svg><svg viewBox="0 0 20.03 20.031" id="user_btn" xmlns="http://www.w3.org/2000/svg"><path class="ycls-1" d="M2.15 4.287a2.146 2.146 0 112.14-2.145 2.145 2.145 0 01-2.14 2.145zm0 7.869a2.146 2.146 0 112.14-2.147 2.146 2.146 0 01-2.14 2.147zm0 7.868a2.146 2.146 0 112.14-2.146 2.145 2.145 0 01-2.14 2.146zm7.86-15.737a2.146 2.146 0 112.15-2.145 2.143 2.143 0 01-2.15 2.145zm0 7.869a2.146 2.146 0 112.15-2.147 2.144 2.144 0 01-2.15 2.147zm0 7.868a2.146 2.146 0 112.15-2.146 2.143 2.143 0 01-2.15 2.146zm7.87-15.737a2.146 2.146 0 112.15-2.145 2.143 2.143 0 01-2.15 2.145zm0 7.869a2.146 2.146 0 112.15-2.147 2.144 2.144 0 01-2.15 2.147zm0 7.868a2.146 2.146 0 112.15-2.146 2.143 2.143 0 01-2.15 2.146z"/></svg></svg>